<svg width="30" height="30" viewBox="0 0 30 30" fill="none" xmlns="http://www.w3.org/2000/svg">
<path d="M27.3398 1.13184H2.6625C1.81725 1.13184 1.13203 1.81705 1.13203 2.6623V27.3396C1.13203 28.1849 1.81725 28.8701 2.6625 28.8701H27.3398C28.1851 28.8701 28.8703 28.1849 28.8703 27.3396V2.6623C28.8703 1.81705 28.1851 1.13184 27.3398 1.13184Z" fill="#3D5A98"/>
<path d="M20.2687 28.8679V18.1265H23.8734L24.4125 13.9406H20.2687V11.2687C20.2687 10.057 20.6062 9.22962 22.343 9.22962H24.5602V5.47962C23.4865 5.36772 22.4076 5.31452 21.3281 5.32024C18.1359 5.32024 15.9375 7.26555 15.9375 10.8538V13.9406H12.3328V18.1265H15.9375V28.8679H20.2687Z" fill="white"/>
</svg>
